<svg width="24" height="24" viewBox="0 0 24 24" fill="none" xmlns="http://www.w3.org/2000/svg">
<path fill-rule="evenodd" clip-rule="evenodd" d="M21.7408 7.76341C21.9081 7.93076 21.9081 8.20209 21.7408 8.36945L21.2736 8.8366L17.3849 4.94786L17.852 4.48071C18.0194 4.31336 18.2907 4.31336 18.4581 4.48071L21.7408 7.76341ZM16.6778 5.65491L20.5666 9.54364L18.4581 11.6521C18.2907 11.8195 18.0194 11.8195 17.852 11.6521L14.5693 8.36945C14.402 8.20209 14.402 7.93076 14.5693 7.76341L16.6778 5.65491ZM22.4478 9.07649C23.0057 8.51865 23.0057 7.61421 22.4478 7.05637L19.1651 3.77367C18.6073 3.21583 17.7028 3.21583 17.145 3.77367L13.8623 7.05637C13.3044 7.61421 13.3044 8.51865 13.8623 9.07649L15.1499 10.3641L8.62411 16.8888C7.85733 16.4364 6.85348 16.5396 6.1948 17.1982C5.41383 17.9792 5.41383 19.2454 6.1948 20.0264C6.97578 20.8074 8.242 20.8074 9.02298 20.0264C9.68211 19.3673 9.78494 18.3625 9.33148 17.5955L15.8569 11.0711L17.145 12.3592C17.7028 12.917 18.6073 12.917 19.1651 12.3592L22.4478 9.07649ZM8.31593 19.3194C8.70642 18.9289 8.70642 18.2958 8.31593 17.9053C7.92544 17.5148 7.29234 17.5148 6.90185 17.9053C6.51136 18.2958 6.51136 18.9289 6.90185 19.3194C7.29234 19.7099 7.92544 19.7099 8.31593 19.3194Z" fill="#616161"/>
<path fill-rule="evenodd" clip-rule="evenodd" d="M2.26007 7.76316C2.09272 7.93052 2.09272 8.20185 2.26007 8.3692L2.72722 8.83635L6.61596 4.94762L6.1488 4.48047C5.98145 4.31311 5.71012 4.31311 5.54277 4.48047L2.26007 7.76316ZM7.323 5.65466L3.43426 9.5434L5.54277 11.6519C5.71012 11.8193 5.98145 11.8193 6.1488 11.6519L9.4315 8.3692C9.59886 8.20185 9.59886 7.93052 9.4315 7.76316L7.323 5.65466ZM1.55302 9.07624C0.995183 8.5184 0.995183 7.61396 1.55302 7.05612L4.83572 3.77342C5.39357 3.21558 6.29801 3.21558 6.85585 3.77342L10.1385 7.05612C10.6964 7.61396 10.6964 8.5184 10.1385 9.07624L8.8509 10.3639L15.376 16.889C16.1429 16.4361 17.1471 16.5391 17.806 17.198C18.587 17.979 18.587 19.2452 17.806 20.0262C17.0251 20.8071 15.7588 20.8071 14.9779 20.0262C14.3189 19.3672 14.216 18.3629 14.6689 17.596L8.14385 11.0709L6.85585 12.3589C6.29801 12.9168 5.39357 12.9168 4.83572 12.3589L1.55302 9.07624ZM15.6849 19.3191C15.2944 18.9286 15.2944 18.2955 15.6849 17.905C16.0754 17.5145 16.7085 17.5145 17.099 17.905C17.4895 18.2955 17.4895 18.9286 17.099 19.3191C16.7085 19.7096 16.0754 19.7096 15.6849 19.3191Z" fill="#616161"/>
</svg>
