<svg width="24" height="24" viewBox="0 0 24 24" fill="none" xmlns="http://www.w3.org/2000/svg">
<path fill-rule="evenodd" clip-rule="evenodd" d="M10.4722 4.79999C10.4722 4.52385 10.6961 4.29999 10.9722 4.29999H17.1389C17.415 4.29999 17.6389 4.52385 17.6389 4.79999C17.6389 5.07613 17.415 5.29999 17.1389 5.29999H14.5556V7.3857H15.448C15.462 7.3857 15.4759 7.38569 15.4897 7.38568C15.6932 7.38549 15.8727 7.38532 16.047 7.42719C16.2001 7.46397 16.3465 7.52463 16.4808 7.60695C16.6336 7.70066 16.7603 7.82773 16.9041 7.97186C16.9138 7.98161 16.9236 7.99144 16.9335 8.00135L18.0522 9.12087C18.0621 9.13077 18.0719 9.14058 18.0816 9.1503C18.2255 9.29401 18.3523 9.42071 18.4458 9.57343C18.528 9.70759 18.5886 9.85385 18.6253 10.0068C18.667 10.181 18.6669 10.3603 18.6667 10.5636C18.6667 10.5774 18.6667 10.5912 18.6667 10.6052V17.6193C18.6667 17.8828 18.6667 18.1102 18.6514 18.2975C18.6352 18.4952 18.5996 18.6918 18.5032 18.881C18.3594 19.1632 18.1299 19.3927 17.8477 19.5365C17.6585 19.6329 17.4619 19.6686 17.2642 19.6847C17.0769 19.7 16.8495 19.7 16.5859 19.7H10.8011C10.783 19.7 10.7651 19.7 10.7472 19.7C10.4876 19.7003 10.259 19.7006 10.0438 19.6352C9.85508 19.5779 9.6795 19.4839 9.52713 19.3586C9.35339 19.2157 9.22689 19.0253 9.08321 18.8091C9.07336 18.7943 9.06342 18.7793 9.05338 18.7642L7.87016 16.988C7.76268 16.8267 7.73972 16.7952 7.71789 16.7719C7.64305 16.6923 7.54416 16.6393 7.43636 16.6212C7.40492 16.6159 7.36595 16.6143 7.1721 16.6143C7.15296 16.6143 7.13402 16.6143 7.11527 16.6143C6.85726 16.6146 6.63464 16.6148 6.43893 16.5615C5.92629 16.4218 5.52582 16.0213 5.38611 15.5087C5.33278 15.313 5.33302 15.0903 5.33329 14.8323C5.33331 14.8136 5.33333 14.7946 5.33333 14.7755V12.5H3.25V15.0857C3.25 15.3618 3.02614 15.5857 2.75 15.5857C2.47386 15.5857 2.25 15.3618 2.25 15.0857V8.91427C2.25 8.63813 2.47386 8.41427 2.75 8.41427C3.02614 8.41427 3.25 8.63813 3.25 8.91427V11.5H5.33333L5.33333 9.46643C5.33332 9.20285 5.33332 8.97547 5.34862 8.78819C5.36477 8.59052 5.40043 8.39391 5.49682 8.20472C5.64063 7.92247 5.8701 7.693 6.15235 7.54919C6.34154 7.4528 6.53815 7.41714 6.73582 7.40099C6.92311 7.38568 7.15049 7.38569 7.41406 7.3857L13.5556 7.3857V5.29999H10.9722C10.6961 5.29999 10.4722 5.07613 10.4722 4.79999ZM7.43333 8.3857C7.14506 8.3857 6.95892 8.38609 6.81725 8.39767C6.68142 8.40876 6.63106 8.4276 6.60634 8.4402C6.51226 8.48814 6.43577 8.56463 6.38783 8.65871C6.37523 8.68343 6.35639 8.73379 6.3453 8.86962C6.33372 9.01129 6.33333 9.19742 6.33333 9.4857V14.7755C6.33333 15.1233 6.33777 15.1975 6.35093 15.2457C6.3975 15.4166 6.53099 15.5501 6.70187 15.5967C6.75015 15.6098 6.82431 15.6143 7.1721 15.6143C7.18232 15.6143 7.19246 15.6143 7.20252 15.6143C7.34901 15.6142 7.4775 15.6141 7.60212 15.635C7.92552 15.6894 8.2222 15.8482 8.44673 16.0872C8.53325 16.1793 8.60442 16.2863 8.68555 16.4083C8.69112 16.4167 8.69673 16.4251 8.7024 16.4336L9.88563 18.2098C10.0765 18.4964 10.1185 18.5501 10.1623 18.5862C10.2131 18.6279 10.2716 18.6593 10.3345 18.6784C10.3888 18.6949 10.4568 18.7 10.8011 18.7H16.5667C16.8549 18.7 17.0411 18.6996 17.1827 18.688C17.3186 18.6769 17.3689 18.6581 17.3937 18.6455C17.4877 18.5976 17.5642 18.5211 17.6122 18.427C17.6248 18.4023 17.6436 18.3519 17.6547 18.2161C17.6663 18.0744 17.6667 17.8883 17.6667 17.6V10.6052C17.6667 10.337 17.6635 10.2843 17.6529 10.2402C17.6406 10.1892 17.6204 10.1404 17.5931 10.0957C17.5694 10.057 17.5344 10.0175 17.3448 9.82771L16.2261 8.70818C16.0363 8.51823 15.9968 8.4832 15.958 8.45945C15.9133 8.43201 15.8645 8.41179 15.8135 8.39953C15.7693 8.38892 15.7165 8.3857 15.448 8.3857H7.43333ZM21.25 10.4714C21.5261 10.4714 21.75 10.6953 21.75 10.9714V19.2C21.75 19.4761 21.5261 19.7 21.25 19.7C20.9739 19.7 20.75 19.4761 20.75 19.2V10.9714C20.75 10.6953 20.9739 10.4714 21.25 10.4714Z" fill="#616161"/>
<path d="M12.8139 10.8508C12.8677 10.3139 12.8946 10.0455 12.8237 9.96395C12.7626 9.89381 12.6677 9.86333 12.5773 9.88484C12.4721 9.90983 12.3378 10.1438 12.069 10.6117L10.1826 13.8959C10.0612 14.1072 10.0006 14.2128 10 14.3019C9.99953 14.3794 10.024 14.4529 10.0664 14.5014C10.1151 14.5572 10.2109 14.5572 10.4026 14.5572H12.2031C12.3563 14.5572 12.4329 14.5572 12.489 14.5879C12.5383 14.615 12.577 14.6578 12.599 14.7095C12.624 14.7685 12.6163 14.8447 12.6011 14.9971L12.4765 16.2391C12.4227 16.776 12.3957 17.0445 12.4667 17.126C12.5277 17.1961 12.6226 17.2266 12.7131 17.2051C12.8182 17.1801 12.9526 16.9462 13.2214 16.4783L15.1078 13.194C15.2291 12.9827 15.2898 12.8771 15.2904 12.788C15.2908 12.7106 15.2664 12.6371 15.224 12.5886C15.1752 12.5328 15.0794 12.5328 14.8878 12.5328H13.0873C12.9341 12.5328 12.8575 12.5328 12.8014 12.502C12.7521 12.475 12.7133 12.4321 12.6914 12.3804C12.6664 12.3215 12.674 12.2453 12.6893 12.0928L12.8139 10.8508Z" fill="#616161"/>
</svg>
