<svg width="24" height="24" viewBox="0 0 24 24" fill="none" xmlns="http://www.w3.org/2000/svg">
<path fill-rule="evenodd" clip-rule="evenodd" d="M12 4.03998C7.30558 4.03998 3.5 7.84556 3.5 12.54C3.5 15.7704 5.3019 18.5807 7.95781 20.0193C8.20062 20.1508 8.29084 20.4543 8.15932 20.6971C8.0278 20.9399 7.72434 21.0301 7.48153 20.8986C4.51587 19.2922 2.5 16.1519 2.5 12.54C2.5 7.29327 6.75329 3.03998 12 3.03998C17.2467 3.03998 21.5 7.29327 21.5 12.54C21.5 16.1519 19.4841 19.2922 16.5185 20.8986C16.2757 21.0301 15.9722 20.9399 15.8407 20.6971C15.7092 20.4543 15.7994 20.1508 16.0422 20.0193C18.6981 18.5807 20.5 15.7704 20.5 12.54C20.5 7.84556 16.6944 4.03998 12 4.03998ZM16.2572 8.11123C16.494 8.25331 16.5708 8.56044 16.4287 8.79723L13.5568 13.5838C14.1316 14.0418 14.5 14.7479 14.5 15.54C14.5 16.9207 13.3807 18.04 12 18.04C10.6193 18.04 9.5 16.9207 9.5 15.54C9.5 14.1593 10.6193 13.04 12 13.04C12.2297 13.04 12.4522 13.071 12.6635 13.129L15.5713 8.28273C15.7133 8.04594 16.0205 7.96916 16.2572 8.11123ZM12 14.04C11.1716 14.04 10.5 14.7116 10.5 15.54C10.5 16.3684 11.1716 17.04 12 17.04C12.8284 17.04 13.5 16.3684 13.5 15.54C13.5 14.7116 12.8284 14.04 12 14.04Z" fill="#616161"/>
<path d="M7.75002 8.89C8.0814 8.89 8.35002 8.62137 8.35002 8.29C8.35002 7.95863 8.0814 7.69 7.75002 7.69C7.41865 7.69 7.15002 7.95863 7.15002 8.29C7.15002 8.62137 7.41865 8.89 7.75002 8.89Z" fill="#616161"/>
<path d="M12 7.14C12.3314 7.14 12.6 6.87137 12.6 6.54C12.6 6.20863 12.3314 5.94 12 5.94C11.6687 5.94 11.4 6.20863 11.4 6.54C11.4 6.87137 11.6687 7.14 12 7.14Z" fill="#616161"/>
<path d="M18 13.14C18.3314 13.14 18.6 12.8714 18.6 12.54C18.6 12.2086 18.3314 11.94 18 11.94C17.6687 11.94 17.4 12.2086 17.4 12.54C17.4 12.8714 17.6687 13.14 18 13.14Z" fill="#616161"/>
<path d="M6.00002 13.14C6.3314 13.14 6.60002 12.8714 6.60002 12.54C6.60002 12.2086 6.3314 11.94 6.00002 11.94C5.66865 11.94 5.40002 12.2086 5.40002 12.54C5.40002 12.8714 5.66865 13.14 6.00002 13.14Z" fill="#616161"/>
</svg>
